<?xml version="1.0" standalone="no"?>
<!DOCTYPE svg PUBLIC "-//W3C//DTD SVG 20010904//EN"
 "http://www.w3.org/TR/2001/REC-SVG-20010904/DTD/svg10.dtd">
<svg version="1.0" xmlns="http://www.w3.org/2000/svg"
 width="512.000000pt" height="512.000000pt" viewBox="0 0 512.000000 512.000000"
 preserveAspectRatio="xMidYMid meet">

<g transform="translate(0.000000,512.000000) scale(0.100000,-0.100000)"
fill="#000000" stroke="none">
<path d="M2295 3560 c-1603 -1019 -1920 -1223 -1920 -1242 0 -18 86 -72 550
-340 303 -174 554 -319 558 -320 4 -2 1 -32 -7 -68 -39 -163 -12 -170 104 -30
46 55 86 99 91 98 4 -2 226 -248 493 -548 267 -300 494 -546 505 -548 14 -2
20 4 23 25 3 15 357 951 788 2078 431 1128 785 2061 788 2074 5 24 -11 41 -38
41 -8 0 -879 -549 -1935 -1220z m1762 1013 c-41 -49 -303 -358 -581 -688 -278
-330 -515 -602 -526 -605 -16 -4 -1346 -1453 -1420 -1547 -17 -22 -25 -25 -44
-17 -34 13 -1046 598 -1045 604 0 6 3671 2339 3682 2339 5 1 -25 -38 -66 -86z
m-639 -1936 l-762 -1997 -33 32 c-17 18 -232 258 -477 532 l-445 500 32 38
c317 378 2443 2895 2444 2893 2 -1 -340 -900 -759 -1998z m-958 40 c0 -2 -10
-12 -22 -23 l-23 -19 19 23 c18 21 26 27 26 19z m-175 -204 c-64 -76 -261
-310 -438 -520 -177 -209 -323 -380 -325 -379 -1 2 3 26 9 54 7 37 21 62 48
89 20 21 211 230 425 466 214 235 390 427 393 427 2 0 -48 -62 -112 -137z"/>
<path d="M2453 4529 l6 -184 -22 26 c-98 117 -137 168 -137 178 0 28 -39 5
-130 -76 -54 -49 -99 -95 -99 -104 -1 -9 68 -65 174 -140 l175 -124 0 -167 c0
-163 1 -168 21 -168 23 0 165 35 217 53 l32 11 0 121 c0 66 -3 258 -7 427 -6
300 -7 307 -27 312 -12 3 -63 8 -115 12 l-94 7 6 -184z m183 127 c1 0 5 -179
9 -396 l7 -396 -73 -17 c-41 -10 -84 -20 -96 -23 l-23 -6 0 159 0 160 -160
114 c-88 62 -160 117 -160 120 0 4 30 33 66 65 66 58 66 58 82 37 99 -126 179
-213 195 -213 19 0 20 6 13 204 l-7 205 73 -6 c40 -3 74 -6 74 -7z"/>
<path d="M1833 4398 c-40 -7 -53 -14 -53 -27 0 -10 39 -101 86 -202 47 -101
97 -208 110 -237 l24 -54 -43 25 c-144 82 -496 267 -510 267 -10 0 -17 -8 -17
-17 0 -32 342 -753 357 -753 7 0 45 16 83 35 51 26 70 41 70 55 0 11 -6 20
-12 20 -7 1 -48 64 -90 141 -42 78 -72 139 -65 136 7 -2 78 -48 159 -101 81
-53 153 -96 160 -96 7 0 64 18 126 41 89 33 112 45 112 60 0 11 -79 177 -175
369 l-175 350 -48 -1 c-26 -1 -71 -6 -99 -11z m279 -361 l166 -333 -90 -33
-89 -32 -95 60 c-52 34 -137 88 -188 122 -95 61 -128 70 -134 36 -2 -10 38
-94 89 -185 50 -92 94 -170 96 -174 6 -11 -58 -41 -68 -31 -10 10 -291 614
-287 618 2 1 118 -60 258 -136 140 -76 265 -139 278 -139 15 0 22 6 22 18 0
10 -53 133 -118 273 l-119 254 41 6 c23 3 48 7 56 7 10 2 68 -103 182 -331z"/>
<path d="M1240 4118 c0 -7 -9 -218 -20 -468 -11 -250 -20 -467 -20 -482 0 -24
4 -28 28 -28 16 0 52 7 81 16 l53 15 -3 127 c-4 122 -3 127 17 130 17 2 27
-11 59 -83 28 -64 42 -85 57 -85 10 0 57 10 103 21 69 17 85 25 85 40 0 11
-89 197 -197 414 -173 345 -201 395 -220 395 -13 0 -23 -6 -23 -12z m379 -774
c1 -9 -80 -34 -108 -34 -4 0 -25 38 -46 85 -41 93 -42 94 -121 74 l-44 -11 6
-52 c3 -28 6 -84 7 -125 l2 -75 -33 -9 c-18 -6 -34 -8 -36 -6 -3 3 30 815 34
829 2 7 339 -663 339 -676z"/>
<path d="M1320 3690 c0 -143 1 -150 20 -150 11 0 20 5 20 10 0 6 7 10 15 10 8
0 15 5 15 10 0 6 7 10 15 10 22 0 18 29 -15 110 -16 40 -30 90 -30 111 0 32
-3 39 -20 39 -19 0 -20 -7 -20 -150z"/>
</g>
</svg>
